<svg version="1.2" xmlns="http://www.w3.org/2000/svg" viewBox="0 0 50 44" width="50" height="44">
	<title>allegro logo</title>
	<style>
		.s0 { fill: #ff5a00 } 
	</style>
	<path class="s0" d="m12.1 39c2.5 2 5.9 2.9 10.1 2.9h3.1 16.2c0.6 0 1.1-0.5 1.1-1.1v-11.2-11.7c0-5.2-1.2-9.2-3.7-11.8-2.5-2.8-7.5-4.1-12.1-4.1-4.7 0-9.4 1.2-13.3 3.5-0.3 0.2-0.5 0.5-0.5 0.8l0.4 5.7c0.1 0.8 1 1.1 1.7 0.6 5.7-3.5 12.5-4.2 16-2.4 2.4 1.2 3.1 3.8 3.1 5.5v0.8h-9.6c-4.1 0-16.6 1.5-16.6 13.1v0.1c0 4 1.4 7.2 4.1 9.3zm13-15.5h9.1v11.3h-11.4c-1.5-0.1-2.8-0.5-4.1-1.4-1.3-1-1.9-2.2-1.9-3.7q0-0.1 0-0.1c0.1-2 1.5-6.1 8.3-6.1z"/>
</svg>