<svg version="1.2" xmlns="http://www.w3.org/2000/svg" viewBox="0 0 137 44" width="137" height="44">
	<title>allegro logo</title>
	<style>
		.s0 { fill: #ff5a00 } 
	</style>
	<path class="s0" d="m120.3 32.3c3.5-0.1 6.9-1.6 8.9-4.4 1.5-2 2.2-4.5 2.2-6.9 0-2.4-0.7-4.9-2.2-6.9-2-2.8-5.4-4.4-8.9-4.4-3.5 0-6.8 1.6-8.9 4.4-1.5 2-2.1 4.5-2.1 6.9 0 2.4 0.6 4.9 2.1 6.9 2.1 2.8 5.4 4.3 8.9 4.4zm-5.4-13.9c0.8-2.4 2.8-4.3 5.4-4.4 2.7 0.1 4.6 2 5.4 4.4 0.3 0.8 0.4 1.7 0.4 2.6 0 0.9-0.1 1.8-0.4 2.6-0.8 2.4-2.7 4.3-5.4 4.4-2.6-0.1-4.6-2-5.4-4.4-0.2-0.8-0.4-1.7-0.4-2.6 0-0.9 0.2-1.8 0.4-2.6z"/>
	<path class="s0" d="m40.1 32.3h3.7c0.3 0 0.6-0.2 0.6-0.6v-30.5c0-0.3-0.3-0.6-0.6-0.6h-3.7c-0.4 0-0.7 0.3-0.7 0.6v30.5c0 0.4 0.3 0.6 0.7 0.6z"/>
	<path class="s0" d="m31.4 32.3h3.7c0.3 0 0.6-0.2 0.6-0.6v-30.5c0-0.3-0.3-0.6-0.6-0.6h-3.7c-0.4 0-0.7 0.3-0.7 0.6v30.5c0 0.4 0.3 0.6 0.7 0.6z"/>
	<path class="s0" d="m96.4 32.3h3.7c0.4 0 0.7-0.2 0.7-0.6v-12.4c0-3.9 2.6-5.8 6.8-4.9 0.5 0.1 0.8-0.2 0.8-0.8v-2.6c0-0.6 0-0.9-0.5-1-0.7-0.2-2.2-0.3-2.6-0.3-2.7 0-5.1 1.1-6.8 2.8-1.2 1.2-2.7 3.1-2.7 6.4v12.8c0 0.4 0.3 0.6 0.6 0.6z"/>
	<path class="s0" d="m81.5 32.3c2.3 0 4.5-0.7 6.4-2v2.8c0 3.7-3.3 4.3-5.3 4.5-1.4 0.1-3.4-0.1-4.3-0.3-0.6 0-1 0-1 0.6v3.3c0 0.3 0.2 0.5 0.6 0.6 4.8 0.4 8.1 0.3 10.5-1.1 1.7-1 2.9-2.6 3.6-4.5 0.4-1.4 0.6-3.1 0.6-4.5v-10.7c0-2.5-0.7-4.9-2.2-6.9-2-2.8-5.4-4.4-8.9-4.4-3.5 0-6.8 1.6-8.9 4.4-2.9 3.9-2.9 9.9 0 13.8 2.1 2.8 5.4 4.3 8.9 4.4zm-5.4-13.9c0.8-2.4 2.8-4.4 5.4-4.4 6 0 6.2 6.1 6.2 7 0 0.9-0.2 7-6.2 7-2.6 0-4.6-2-5.4-4.4-0.2-0.8-0.4-1.7-0.4-2.6 0-0.9 0.2-1.8 0.4-2.6z"/>
	<path class="s0" d="m58.3 32.3c3.6 0.1 6-0.5 7.8-1.5 0.3-0.3 0.4-0.5 0.4-1.1v-2.9c0-0.6-0.4-0.9-0.9-0.5-1.9 1.2-4.2 1.9-7.2 1.7-3-0.2-5.4-2.3-5.6-5.2h14.6c0.3 0 0.6-0.3 0.6-0.6 0.2-4-0.9-12.5-9.9-12.5-6.6 0-9.5 4.5-10.4 8.2-0.3 1-0.4 2.1-0.4 3.1 0 2.4 0.7 4.9 2.1 6.9 2.1 2.8 5.5 4.2 8.9 4.4zm-0.2-18.3c2.1 0 4.7 1.3 4.7 4.8h-10c0-1.6 1.4-4.8 5.3-4.8z"/>
	<path class="s0" d="m10 30.7c1.5 1.1 3.4 1.6 5.8 1.6h1.7 9.2c0.4 0 0.6-0.2 0.6-0.6v-6.3-6.6c0-3-0.6-5.2-2-6.8-1.5-1.5-4.3-2.3-6.9-2.3-2.6 0-5.3 0.7-7.6 2-0.1 0.1-0.2 0.3-0.2 0.5l0.2 3.2c0 0.5 0.5 0.6 0.9 0.4 3.3-2 7.2-2.4 9.1-1.4 1.4 0.7 1.8 2.1 1.8 3.1v0.5h-5.4c-2.4 0-9.5 0.8-9.5 7.3v0.2c0 2.2 0.8 4 2.3 5.2zm7.5-8.8h5.1v6.4h-6.5c-0.8 0-1.6-0.2-2.3-0.8-0.7-0.5-1-1.2-1.1-2.1q0 0 0 0c0.1-1.2 0.9-3.5 4.8-3.5z"/>
</svg>