<!-- icon666.com - MILLIONS OF FREE VECTOR ICONS --><svg viewBox="-70 0 512 512" xmlns="http://www.w3.org/2000/svg"><path d="m373.070312 469.113281-23.941406-316.15625c-.011718-.167969-.027344-.335937-.046875-.503906-2.164062-19.773437-18.800781-34.683594-38.691406-34.683594h-49.050781v-43.0625c0-41.195312-33.511719-74.707031-74.703125-74.707031-41.191407 0-74.703125 33.511719-74.703125 74.707031v43.0625h-48.078125c-19.847657 0-36.480469 14.875-38.683594 34.601563-.019531.164062-.035156.324218-.046875.488281l-24.914062 316.164063c-1.140626 10.902343 2.386718 21.824218 9.699218 30 7.378906 8.246093 17.953125 12.976562 29.015625 12.976562h295.421875c11.046875 0 21.609375-4.71875 28.984375-12.945312 7.3125-8.15625 10.851563-19.050782 9.738281-29.941407zm-231.195312-394.40625c0-24.683593 20.078125-44.765625 44.761719-44.765625 24.683593 0 44.761719 20.082032 44.761719 44.765625v43.0625h-89.523438zm199.160156 404.363281c-1 1.117188-3.195312 2.988282-6.6875 2.988282h-295.421875c-3.496093 0-5.699219-1.875-6.699219-2.996094-1-1.117188-2.621093-3.511719-2.230468-6.984375.015625-.164063.035156-.324219.046875-.488281l24.90625-316.078125c.589843-4.460938 4.386719-7.800781 8.902343-7.800781h48.078126v15.96875c0 8.269531 6.703124 14.972656 14.972656 14.972656 8.265625 0 14.96875-6.703125 14.96875-14.972656v-15.96875h89.527344v15.96875c0 8.269531 6.703124 14.972656 14.96875 14.972656 8.269531 0 14.972656-6.703125 14.972656-14.972656v-15.96875h49.046875c4.527343 0 8.324219 3.347656 8.910156 7.816406l23.933594 316.070312c.011719.164063.027343.332032.046875.5.382812 3.46875-1.238282 5.859375-2.242188 6.972656zm0 0" fill="#000000" style="fill: rgb(250, 90, 0);"></path></svg>