<!-- icon666.com - MILLIONS OF FREE VECTOR ICONS --><svg version="1.1" id="Layer_1" xmlns="http://www.w3.org/2000/svg" xmlns:xlink="http://www.w3.org/1999/xlink" x="0px" y="0px" viewBox="0 0 512 512" style="enable-background:new 0 0 512 512;" xml:space="preserve"><g><g><path d="M181.328,341.332c-5.891,0-10.656,4.766-10.656,10.656s4.766,10.672,10.656,10.672S192,357.879,192,351.988 S187.219,341.332,181.328,341.332z" fill="#000000" style="fill: rgb(250, 90, 0);"></path></g></g><g><g><path d="M426.359,170.722l-63.078-0.055h-0.641v-42.664c0-11.781-9.547-21.336-21.328-21.336H106.688 c-11.781,0-21.328,9.555-21.328,21.336H10.672C4.781,128.004,0,132.777,0,138.668c0,5.891,4.781,10.664,10.672,10.664H85.36 l-0.016,42.672H32c-5.891,0-10.656,4.766-10.656,10.656c0,5.89,4.765,10.672,10.656,10.672h53.344v42.672h-32 c-5.891,0-10.672,4.766-10.672,10.656s4.781,10.672,10.672,10.672h32v42.656H74.672C68.781,319.988,64,324.77,64,330.66 s4.781,10.672,10.672,10.672h10.672c0,11.781,9.547,21.328,21.328,21.328h22.406c4.938,24.344,26.453,42.672,52.25,42.672 c25.812,0,47.328-18.328,52.266-42.672h107.703h33.109c4.938,24.344,26.453,42.672,52.25,42.672 c25.812,0,47.328-18.328,52.266-42.672h32.859L512,255.988L426.359,170.722z M181.328,383.988c-17.641,0-31.984-14.344-31.984-32 c0-17.641,14.344-32,31.984-32c17.656,0,32,14.359,32,32C213.328,369.645,198.984,383.988,181.328,383.988z M233.594,341.332 c-4.938-24.344-26.453-42.672-52.266-42.672c-25.797,0-47.312,18.328-52.25,42.672h-22.406l0.016-213.328h234.625l-0.016,213.328 H233.594z M426.656,383.988c-17.641,0-32-14.344-32-32c0-17.641,14.359-32,32-32c17.656,0,32,14.359,32,32 C458.656,369.645,444.312,383.988,426.656,383.988z M490.5,341.332h-11.578c-4.938-24.344-26.453-42.672-52.266-42.672 c-25.797,0-47.312,18.328-52.25,42.672h-11.781l0.016-149.328h0.609l54.297,0.047l73.109,72.797L490.5,341.332z" fill="#000000" style="fill: rgb(250, 90, 0);"></path></g></g><g><g><path d="M426.656,341.332c-5.891,0-10.656,4.766-10.656,10.656s4.766,10.672,10.656,10.672s10.672-4.781,10.672-10.672 S432.547,341.332,426.656,341.332z" fill="#000000" style="fill: rgb(250, 90, 0);"></path></g></g></svg>