<svg version="1.2" xmlns="http://www.w3.org/2000/svg" viewBox="0 0 32 32" width="32" height="32">
	<title>delivery1</title>
	<style>
		.s0 { fill: #b0b8bc } 
	</style>
	<path class="s0" d="m0 14h2.4l2-4h4.6v-4h21v2h-19v14h6v0.1q0.5-0.5 1.1-0.8 0.7-0.3 1.4-0.3 0.7 0 1.4 0.3 0.6 0.3 1.1 0.8v-0.1h2v-8h2v10h-3.1q0.1 0.1 0.1 0.1 0 0.1 0 0.2 0 0 0 0.1 0 0-0.1 0.1c0 0.9-0.3 1.8-1 2.5-0.6 0.6-1.5 1-2.5 1-0.9 0-1.8-0.4-2.4-1-0.7-0.7-1.1-1.6-1.1-2.5q0.1-0.1 0.1-0.1 0-0.1 0-0.2 0 0 0-0.1 0 0 0-0.1h-6.1q0 0.1 0 0.1 0 0.1 0 0.1 0 0.1 0 0.2 0 0 0 0.1c0 0.9-0.3 1.8-1 2.5-0.6 0.6-1.5 1-2.5 1-0.9 0-1.8-0.4-2.4-1-0.7-0.7-1.1-1.6-1.1-2.5q0.1-0.1 0.1-0.1 0-0.1 0-0.2 0 0 0-0.1 0 0 0-0.1h-3zm19.5 12c0.6 0 1.2-0.4 1.4-0.9 0.2-0.6 0.1-1.2-0.3-1.7-0.5-0.4-1.1-0.5-1.7-0.3-0.5 0.2-0.9 0.8-0.9 1.4q0 0.3 0.1 0.6 0.1 0.2 0.3 0.5 0.3 0.2 0.5 0.3 0.3 0.1 0.6 0.1zm-13 0c0.6 0 1.2-0.4 1.4-0.9 0.2-0.6 0.1-1.2-0.3-1.7-0.5-0.4-1.1-0.5-1.7-0.3-0.5 0.2-0.9 0.8-0.9 1.4q0 0.3 0.1 0.6 0.1 0.2 0.3 0.5 0.3 0.2 0.5 0.3 0.3 0.1 0.6 0.1zm-4.5-4h2v0.1q0.5-0.5 1.1-0.8 0.7-0.3 1.4-0.3 0.7 0 1.4 0.3 0.6 0.3 1.1 0.8v-10.1h-3.4l-2 4h-1.6z"/>
	<path fill-rule="evenodd" class="s0" d="m22 12v-2h6v2z"/>
</svg>